PathFileType	4	(X/Y/Z)	/Users/itak/Documents/Research/Walk-IL/dataset/trc/00378_00012.trc
DataRate	CameraRate	NumFrames	NumMarkers	Units	OrigDataRate	OrigDataStartFrame	OrigNumFrames
100.000000	100.000000	4	54	mm	100.000000	43	346
Frame#	Time	RPSI			LPSI			L3			STRN			T10			C7			CLAV			RBAK			LBAK			LSHO			LUPA			LAEL			LAOL			LWTS			LWPS			LFRA			LIFD			LHPS			LHTS			RSHO			RUPA			RAEL			RAOL			RWTS			RWPS			RFRA			RIFD			RHTS			RHPS			RBHD			LFHD			RFHD			LBHD			RASI			LASI			LKNE			LTHI			LANK			LTIP			LTOE			LMT1			LMT5			LHEE			RKNE			RTHI			RANK			RTIP			RTOE			RMT1			RMT5			RHEE			LHIP			RHIP			*53			
		X1	Y1	Z1	X2	Y2	Z2	X3	Y3	Z3	X4	Y4	Z4	X5	Y5	Z5	X6	Y6	Z6	X7	Y7	Z7	X8	Y8	Z8	X9	Y9	Z9	X10	Y10	Z10	X11	Y11	Z11	X12	Y12	Z12	X13	Y13	Z13	X14	Y14	Z14	X15	Y15	Z15	X16	Y16	Z16	X17	Y17	Z17	X18	Y18	Z18	X19	Y19	Z19	X20	Y20	Z20	X21	Y21	Z21	X22	Y22	Z22	X23	Y23	Z23	X24	Y24	Z24	X25	Y25	Z25	X26	Y26	Z26	X27	Y27	Z27	X28	Y28	Z28	X29	Y29	Z29	X30	Y30	Z30	X31	Y31	Z31	X32	Y32	Z32	X33	Y33	Z33	X34	Y34	Z34	X35	Y35	Z35	X36	Y36	Z36	X37	Y37	Z37	X38	Y38	Z38	X39	Y39	Z39	X40	Y40	Z40	X41	Y41	Z41	X42	Y42	Z42	X43	Y43	Z43	X44	Y44	Z44	X45	Y45	Z45	X46	Y46	Z46	X47	Y47	Z47	X48	Y48	Z48	X49	Y49	Z49	X50	Y50	Z50	X51	Y51	Z51	X52	Y52	Z52	X53	Y53	Z53	X54	Y54	Z54	

44	0.43	-1404.6572265625	956.293701171875	184.3616790771484	-1405.601318359375	943.3880615234375	50.55101776123047	-1400.138061523438	1028.405029296875	128.3587646484375	-1143.182739257812	1155.864501953125	135.5971984863281	-1402.592407226562	1134.000244140625	127.643310546875	-1328.927490234375	1375.23046875	123.9938201904297	-1184.738037109375	1279.55224609375	133.1750335693359	-1392.420288085938	1236.170654296875	190.3942718505859	-1345.600219726562	1340.780517578125	20.64786720275879	-1257.204711914062	1344.209716796875	-30.06400680541992	-1314.253540039062	1238.656127929688	-94.61573028564453	-1363.640258789062	1048.721923828125	-118.4981460571289	-1411.13623046875	1042.029541015625	-47.44429016113281	-1331.624755859375	813.7643432617188	-87.04635620117188	-1391.97412109375	817.8513793945312	-142.8397521972656	-1380.548217773438	944.1785278320312	-130.8724212646484	-1379.809448242188	642.1012573242188	-92.35816955566406	-1399.817016601562	732.0751342773438	-137.8010711669922	-1341.340087890625	720.890625	-110.9058532714844	-1278.8740234375	1346.514892578125	284.2708435058594	-1302.41845703125	1283.826904296875	342.6121520996094	-1327.0654296875	1021.000061035156	382.9966125488281	-1349.616943359375	1013.7861328125	289.9609985351562	-1147.197143554688	852.7362670898438	334.5606994628906	-1183.439331054688	822.5760498046875	392.2767944335938	-1289.420288085938	959.04296875	393.9073181152344	-1092.700805664062	688.5303344726562	321.5477600097656	-1098.964111328125	756.4540405273438	345.3866271972656	-1149.827758789062	739.97705078125	383.8682861328125	-1297.215454101562	1552.208740234375	200.7279815673828	-1161.7421875	1556.552124023438	53.81669616699219	-1166.85595703125	1570.32568359375	175.6344299316406	-1308.149536132812	1531.398071289062	40.27131271362305	-1194.81591796875	911.90234375	259.3593139648438	-1200.68701171875	926.5728759765625	-2.319451808929443	-1076.787719726562	489.7742309570312	-8.165151596069336	-1148.564575195312	611.2319946289062	-31.3261775970459	-989.1785888671875	45.93366622924805	35.48067092895508	-1029.081298828125	257.2244873046875	1.044985890388489	-808.3768920898438	129.5471954345703	121.5083236694336	-881.223876953125	100.9708251953125	144.4196166992188	-867.5831298828125	81.80558776855469	39.70048141479492	-1030.376220703125	36.31278228759766	87.53176116943359	-1408.060791015625	440.0320129394531	262.4059143066406	-1301.135986328125	683.6077880859375	296.9677429199219	-1576.667114257812	56.48708343505859	209.2213439941406	-1434.220825195312	316.031982421875	235.8092956542969	-1406.374755859375	38.85652923583984	129.7562408447266	-1485.21923828125	44.11871719360352	106.5288009643555	-1494.762451171875	45.795654296875	207.1014556884766	-1657.666381835938	53.37859344482422	164.4865264892578	-1312.005859375	936.0534057617188	-55.73490905761719	-1332.338256835938	920.9036254882812	303.7918701171875	nan	nan	nan	
45	0.44	-1396.072265625	953.9301147460938	183.7898101806641	-1396.55712890625	940.666259765625	50.01185607910156	-1391.092895507812	1025.987915039062	127.7883758544922	-1134.024047851562	1153.1689453125	135.4007720947266	-1393.2783203125	1131.526489257812	127.1776123046875	-1319.480712890625	1372.6640625	123.2069854736328	-1175.46142578125	1276.8818359375	132.7141876220703	-1383.040405273438	1233.660522460938	189.6189270019531	-1335.99462890625	1338.1630859375	19.83573341369629	-1247.50927734375	1341.49853515625	-30.81397438049316	-1305.135375976562	1236.01318359375	-95.06387329101562	-1356.075317382812	1046.486450195312	-118.1942749023438	-1402.81689453125	1039.964233398438	-46.59060287475586	-1326.61962890625	811.1265869140625	-87.25226593017578	-1388.023803710938	816.1528930664062	-142.2400665283203	-1374.49755859375	942.2134399414062	-130.3984832763672	-1378.486938476562	640.22216796875	-91.96442413330078	-1397.267700195312	730.5352783203125	-137.0804443359375	-1339.08740234375	719.2913818359375	-110.5370559692383	-1269.785888671875	1344.075927734375	283.6681518554688	-1293.382080078125	1281.2119140625	341.9120178222656	-1317.499755859375	1018.412048339844	382.4578552246094	-1340.11083984375	1011.000854492188	289.4113464355469	-1136.087158203125	852.0784912109375	334.5615539550781	-1172.10546875	821.5621948242188	392.1988525390625	-1279.46826171875	956.8225708007812	393.51220703125	-1079.544921875	688.6348876953125	322.0754699707031	-1087.265502929688	756.4528198242188	345.735107421875	-1137.310546875	739.3446044921875	384.0666198730469	-1289.138671875	1549.1357421875	200.1663665771484	-1153.387573242188	1554.701538085938	53.61623382568359	-1158.931762695312	1568.241943359375	175.4552612304688	-1299.509643554688	1528.393188476562	39.75934600830078	-1186.72607421875	909.3701171875	259.8293762207031	-1191.351806640625	923.9503784179688	-1.909688711166382	-1064.733520507812	488.8214416503906	-6.819521427154541	-1137.560302734375	609.3367309570312	-30.74515533447266	-977.0367431640625	44.97852325439453	36.45649719238281	-1016.721130371094	256.3634643554688	2.290818214416504	-796.98291015625	128.9717712402344	123.9774551391602	-869.8218994140625	100.0996856689453	146.2530364990234	-855.65234375	81.36580657958984	41.53822708129883	-1018.595031738281	35.07258224487305	88.17404937744141	-1402.889526367188	438.689453125	261.9337463378906	-1294.48095703125	681.5755004882812	296.8960876464844	-1576.36767578125	57.15559005737305	209.4693145751953	-1430.549926757812	314.9824523925781	235.5034637451172	-1406.388427734375	38.66793060302734	129.8485260009766	-1485.242919921875	44.19893646240234	106.6365509033203	-1494.543212890625	45.75215148925781	207.2029876708984	-1657.483520507812	55.15968704223633	164.8740234375	-1302.496337890625	933.3983764648438	-55.79205703735352	-1324.343627929688	918.6168212890625	303.564453125	nan	nan	nan	
46	0.45	-1387.280029296875	951.548828125	183.1629180908203	-1387.2529296875	937.9680786132812	49.44541549682617	-1381.978637695312	1023.687438964844	127.1526718139648	-1124.616455078125	1150.58984375	135.1565856933594	-1383.659301757812	1129.154052734375	126.6560363769531	-1309.864624023438	1370.243041992188	122.352897644043	-1165.9873046875	1274.310668945312	132.1921539306641	-1373.392700195312	1231.270385742188	188.8232116699219	-1326.17626953125	1335.638305664062	18.95257568359375	-1237.579833984375	1338.867797851562	-31.61444473266602	-1295.693359375	1233.405151367188	-95.59690856933594	-1348.100341796875	1044.290405273438	-118.0045852661133	-1394.12744140625	1037.922241210938	-45.888671875	-1321.235473632812	808.5943603515625	-87.55732727050781	-1383.69677734375	814.5126342773438	-141.6395874023438	-1367.996459960938	940.3009643554688	-130.0005950927734	-1376.7041015625	638.4876098632812	-91.42893981933594	-1394.32568359375	729.076171875	-136.2656555175781	-1336.553588867188	717.71435546875	-110.1450119018555	-1260.451782226562	1341.7919921875	282.9984130859375	-1284.046264648438	1278.754150390625	341.1932678222656	-1307.61865234375	1016.029296875	381.9489440917969	-1330.415283203125	1008.402526855469	288.9218444824219	-1124.999755859375	851.3276977539062	334.5091857910156	-1160.76171875	820.5247802734375	392.0967407226562	-1269.28857421875	954.7422485351562	393.1182556152344	-1066.684204101562	688.5783081054688	322.5743408203125	-1075.65625	756.323486328125	346.0428466796875	-1124.979858398438	738.6567993164062	384.2385864257812	-1280.932739257812	1546.167236328125	199.5618743896484	-1144.892944335938	1553.00927734375	53.3818244934082	-1150.868286132812	1566.28564453125	175.2466735839844	-1290.6865234375	1525.510986328125	39.17743301391602	-1178.401245117188	906.9183349609375	260.2550354003906	-1181.779174804688	921.4864501953125	-1.552192449569702	-1052.27392578125	488.0713500976562	-5.296248912811279	-1126.168823242188	607.5233154296875	-30.05088996887207	-966.9548950195312	43.86565399169922	37.13147735595703	-1005.114624023438	255.4476928710938	3.478532314300537	-787.002197265625	127.1021270751953	125.6733856201172	-859.90771484375	98.25090789794922	147.5316314697266	-845.6212158203125	80.12416839599609	42.76425933837891	-1008.773132324219	33.83389282226562	88.61473846435547	-1397.266479492188	437.3772277832031	261.2006530761719	-1287.41357421875	679.5477905273438	296.6003112792969	-1576.00439453125	58.08195877075195	209.6198272705078	-1426.546630859375	314.0028076171875	235.0063934326172	-1406.367553710938	38.49103164672852	129.9170227050781	-1485.176391601562	44.3246955871582	106.7285308837891	-1494.24072265625	45.76875686645508	207.2889709472656	-1657.169799804688	57.29183578491211	165.1510009765625	-1292.7421875	930.8482055664062	-55.89507293701172	-1316.114501953125	916.3240356445312	303.2724914550781	nan	nan	nan	
47	0.46	-1378.203857421875	949.2078857421875	182.489013671875	-1377.636962890625	935.3546752929688	48.84917068481445	-1372.727416992188	1021.497802734375	126.4532165527344	-1114.948364257812	1148.177124023438	134.8748474121094	-1373.71923828125	1126.885498046875	126.0638046264648	-1300.10693359375	1367.986328125	121.4297027587891	-1156.315673828125	1271.887329101562	131.6166687011719	-1363.506103515625	1229.020629882812	188.0091705322266	-1316.155395507812	1333.226928710938	18.00107574462891	-1227.428833007812	1336.35595703125	-32.45598983764648	-1285.909912109375	1230.86767578125	-96.22174835205078	-1339.66015625	1042.158935546875	-117.9421005249023	-1385.062377929688	1035.940795898438	-45.37820053100586	-1315.474487304688	806.1865844726562	-87.91117095947266	-1378.89501953125	812.9542236328125	-141.0699615478516	-1360.983764648438	938.4644775390625	-129.6968536376953	-1374.434204101562	636.9241943359375	-90.75254058837891	-1390.92041015625	727.7244873046875	-135.3972930908203	-1333.591186523438	716.051513671875	-109.7272109985352	-1250.906982421875	1339.697387695312	282.2581176757812	-1274.440795898438	1276.498779296875	340.4578247070312	-1297.444213867188	1013.888854980469	381.47265625	-1320.53369140625	1006.033996582031	288.4989318847656	-1113.957641601562	850.4954223632812	334.3936767578125	-1149.44287109375	819.4851684570312	391.974853515625	-1258.898681640625	952.8436279296875	392.72705078125	-1054.087036132812	688.3693237304688	323.0376892089844	-1064.067260742188	756.0889892578125	346.2988891601562	-1112.875854492188	737.94189453125	384.3879699707031	-1272.602783203125	1543.353393554688	198.9185943603516	-1136.248901367188	1551.489135742188	53.11174011230469	-1142.658569335938	1564.486694335938	175.0036010742188	-1281.68505859375	1522.793090820312	38.52428817749023	-1169.744873046875	904.5870361328125	260.6163330078125	-1171.931518554688	919.20361328125	-1.260394215583801	-1039.481567382812	487.4905090332031	-3.617687225341797	-1114.420288085938	605.78857421875	-29.23837089538574	-958.8939208984375	42.65856170654297	37.58323287963867	-994.2825927734375	254.4633483886719	4.639763355255127	-778.3748168945312	124.0148468017578	126.6116943359375	-851.4351806640625	95.48777770996094	148.3082580566406	-837.4462280273438	78.12250518798828	43.432373046875	-1000.871459960938	32.68081665039062	88.94139862060547	-1391.23291015625	436.1561279296875	260.2608337402344	-1279.909912109375	677.5628051757812	296.1119079589844	-1575.559204101562	59.30796051025391	209.6740570068359	-1422.24267578125	313.1575622558594	234.3728790283203	-1406.306884765625	38.3339958190918	129.9670562744141	-1484.994995117188	44.52815628051758	106.8087539672852	-1493.857177734375	45.85357666015625	207.3594207763672	-1656.701416015625	59.82376480102539	165.3174438476562	-1282.7060546875	928.4306640625	-56.06644821166992	-1307.570068359375	914.0760498046875	302.9191589355469	nan	nan	nan	
